<?xml version="1.0" standalone="no"?>
<!DOCTYPE svg PUBLIC "-//W3C//DTD SVG 20010904//EN"
 "http://www.w3.org/TR/2001/REC-SVG-20010904/DTD/svg10.dtd">
<svg version="1.0" xmlns="http://www.w3.org/2000/svg"
 width="1274.000000pt" height="58.000000pt" viewBox="0 0 1274.000000 58.000000"
 preserveAspectRatio="xMidYMid meet">

<g transform="translate(0.000000,58.000000) scale(0.100000,-0.100000)"
fill="#000000" stroke="none">
<path d="M93 354 c-38 -19 -43 -49 -14 -85 l19 -24 664 2 c596 2 848 6 1078
18 41 2 239 6 440 10 201 3 525 8 720 12 195 3 461 7 590 8 129 1 469 6 755
10 969 13 3730 -2 3965 -22 41 -3 134 -7 205 -8 72 -1 288 -7 480 -13 439 -14
653 -20 1125 -32 206 -5 429 -12 495 -16 156 -8 1264 -8 1375 -1 197 14 490
20 490 10 0 -5 -9 -19 -20 -31 -11 -12 -20 -33 -20 -47 0 -22 4 -25 35 -25 29
0 38 6 59 37 13 21 42 56 65 78 47 46 52 76 16 99 -30 20 -44 20 -84 0 -18 -9
-51 -18 -74 -21 -23 -2 -53 -8 -67 -13 -14 -5 -97 -11 -185 -14 -88 -4 -232
-11 -320 -16 -276 -16 -1245 -13 -1525 6 -66 5 -268 11 -620 18 -350 8 -594
16 -660 21 -291 25 -3103 55 -3142 34 -13 -7 -23 -7 -32 0 -17 14 -1123 14
-1131 1 -4 -7 -13 -6 -25 0 -24 13 -271 13 -304 0 -16 -6 -27 -6 -31 0 -5 9
-474 7 -1125 -5 -113 -2 -468 -7 -790 -10 -322 -4 -616 -9 -655 -11 -171 -10
-1075 -15 -1092 -5 -10 5 -133 13 -273 17 -172 4 -268 11 -295 20 -50 17 -53
17 -92 -2z"/>
</g>
</svg>
