<?xml version="1.0" standalone="no"?>
<!DOCTYPE svg PUBLIC "-//W3C//DTD SVG 20010904//EN"
 "http://www.w3.org/TR/2001/REC-SVG-20010904/DTD/svg10.dtd">
<svg version="1.0" xmlns="http://www.w3.org/2000/svg"
 width="384.000000pt" height="42.000000pt" viewBox="0 0 384.000000 42.000000"
 preserveAspectRatio="xMidYMid meet">

<g transform="translate(0.000000,42.000000) scale(0.100000,-0.100000)"
fill="#000000" stroke="none">
<path d="M90 211 c-5 -11 -10 -30 -10 -42 0 -20 3 -21 38 -13 43 10 162 9 422
-4 102 -5 385 -8 629 -6 669 5 2511 0 2566 -7 28 -4 30 -2 33 32 2 23 -2 38
-10 41 -7 2 -146 0 -308 -4 -407 -11 -2633 -15 -2805 -5 -77 5 -176 12 -220
18 -44 5 -135 9 -202 9 -111 0 -123 -2 -133 -19z"/>
</g>
</svg>
